<?xml version="1.0" encoding="utf-8"?>
<!-- Generator: Adobe Illustrator 21.1.0, SVG Export Plug-In . SVG Version: 6.00 Build 0)  -->
<svg version="1.1" id="Layer_1_xA0_Afbeelding_1_" xmlns="http://www.w3.org/2000/svg" xmlns:xlink="http://www.w3.org/1999/xlink"
	 x="0px" y="0px" viewBox="0 0 31.9 65.8" style="enable-background:new 0 0 31.9 65.8;" xml:space="preserve">
<style type="text/css">
	.st0{fill:#7F7F7F;}
</style>
<g>
	<path class="st0" d="M1.1,33.1c0-3.7,0-7.4,0-11c1.4,0,2.9-0.1,4.3,0.1c1.6,0.2,2.2-0.4,2.2-2c0-2.6-0.1-5.1,0-7.7
		c0.2-4.7,2.2-8.3,6.7-10.1C15.2,2,16.1,1.6,17,1.2c4.6,0,9.1,0,13.7,0c0.2,0.4,0.5,0.7,0.5,1.2c0,3.2,0,6.3,0,9.5
		c0,0.7-0.2,0.9-0.9,0.9c-2,0-4.1-0.1-6.1,0c-2,0-2.9,0.8-3,2.8c-0.1,1.7,0,3.4,0,5.2c0,1.1,0.5,1.6,1.7,1.5c2.4-0.1,4.9,0,7.3-0.1
		c0.9,0,1,0.3,1.1,1.1c0.1,2.2-0.8,4.3-0.7,6.4c0,0.5-0.1,1-0.2,1.5c-0.2,1.1-0.8,1.7-1.9,1.8c-1.6,0.2-3.3,0.1-4.9,0.1
		c-2.3,0-2.4,0.1-2.4,2.5c0,9.4,0,18.8,0.1,28.2c0,1.1-0.3,1.3-1.3,1.3c-3.6-0.1-7.3-0.1-10.9,0c-1.1,0-1.3-0.3-1.3-1.3
		c0-5.9,0-11.8,0-17.6c0-3.2-0.1-6.5,0.2-9.7c0.3-2.7-0.7-3.6-3.5-3.5C3.3,32.9,2.2,33,1.1,33.1z"/>
</g>
</svg>
