<?xml version="1.0" encoding="utf-8"?>
<!-- Generator: Adobe Illustrator 21.1.0, SVG Export Plug-In . SVG Version: 6.00 Build 0)  -->
<svg version="1.1" id="Layer_1_xA0_Afbeelding_1_" xmlns="http://www.w3.org/2000/svg" xmlns:xlink="http://www.w3.org/1999/xlink"
	 x="0px" y="0px" viewBox="0 0 100 135" style="enable-background:new 0 0 100 135;" xml:space="preserve">
<style type="text/css">
	.st0{fill:#7F7F7F;}
</style>
<g>
	<path class="st0" d="M64.5,54.5c0,1.2,0,2.3,0,3.5c-0.8,0.5-0.5,1.4-0.5,2.1c-0.3,5.4-0.3,5.4-5.7,5.4c-0.7,0-1.3,0.1-2,0
		c-1.4-0.2-1.9,0.4-1.9,1.8c0.1,10.1,0.1,20.1,0.1,30.2c-4.5,0-9,0-13.5,0c0-8.5,0-16.9,0-25.4c0-2.1,0.9-4.9-0.5-6.2
		c-1.3-1.2-4-0.3-6-0.4c0-3.7,0-7.3,0-11c1.4,0,2.8-0.1,4.2,0.1c2,0.2,2.4-0.6,2.3-2.4c-0.1-2.5-0.1-5,0-7.5
		c0.1-2.9,1.1-5.4,3.1-7.6c1.8-1.9,4.2-2.4,6.4-3.5c4.2,0,8.4,0,12.6,0c1.1,0,1.5,0.2,1.4,1.4c-0.1,3.4,0,6.8,0,10.1
		c-2.4,0-4.8-0.1-7.2-0.1c-1.7,0-2.8,1-2.8,2.8c0,1.7,0,3.5,0,5.2c0,1.2,0.4,1.6,1.6,1.6C58.9,54.5,61.7,54.5,64.5,54.5z"/>
</g>
</svg>
