<?xml version="1.0" encoding="utf-8"?>
<!-- Generator: Adobe Illustrator 21.1.0, SVG Export Plug-In . SVG Version: 6.00 Build 0)  -->
<svg version="1.1" id="Layer_0_xA0_Afbeelding_1_" xmlns="http://www.w3.org/2000/svg" xmlns:xlink="http://www.w3.org/1999/xlink"
	 x="0px" y="0px" viewBox="0 0 512 512" style="enable-background:new 0 0 512 512;" xml:space="preserve">
<style type="text/css">
	.st0{fill:#7F7F7F;}
</style>
<g>
	<path class="st0" d="M287,30c-0.7,6.2-5.1,9-10.2,10.9c-8.1,3-16.6,3.9-25.1,5.1c-6.7,0.9-13.5,1.2-19.8,3.9
		c-1,0.4-2.5,0.8-2.5,2.1c-0.1,1.4,1.4,1.6,2.4,2.1c21.2,10.2,30.2,28,32.3,50.5c1.3,13.4,1.9,26.9,0.8,40.3
		c-1.4,17.9-8.4,33.6-20.3,47c-8.7,9.9-19.1,18.1-29.1,26.6c-6.4,5.4-12.4,11.1-14.5,19.7c-1.6,6.4,0.7,11.7,4.3,16.6
		c6.5,8.9,15.3,15.3,23.6,22.1c15.9,13,31.7,26,43,43.5c11.5,17.9,16.3,37.2,14.4,58.6c-1.9,21.6-8.1,41.2-21.8,58.1
		c-14.7,18.2-34.2,29.3-55.9,36.8c-16.5,5.7-33.4,9.3-50.9,10.2c-1,0-2-0.1-2.7,1c-13,0-26,0-39,0c-6.1-2-12.6-1.8-18.8-2.9
		c-20.2-3.7-39.6-9.5-56.9-21c-19.6-13.1-31.8-31-35.5-54.6c-0.7-4.1,0.6-8.6-1.7-12.4c0-2,0-4,0-6c1.6-0.8,0.9-2.3,1-3.6
		c0.2-9.7,2.6-18.9,6.7-27.7C20,337,36,324.2,55.3,315.1c27.5-12.9,57-17.5,87-19.1c5.8-0.3,11.6,0,17.3,0
		c-0.3-9.6-4.7-16.4-12.2-21.5c-3.3-2.2-4.6-5.3-4.5-9.4c0.2-7.2-0.1-14.3,0.1-21.5c0.1-3.7-0.8-4.9-4.6-4.7
		c-13.6,0.7-27.1-0.4-40.4-3.9c-29.6-7.8-51.7-24.4-61.8-54.2c-7.4-21.6-7.9-43.9-2.9-66c4.2-18.5,13.3-34.6,27.3-47.6
		c19.2-17.8,42.5-27.6,67.8-33.2c6.8-1.5,13.8-2.7,20.7-4C195,30,241,30,287,30z M154.7,314.9c-8-0.4-15.9,0.5-23.8,2.1
		c-24.6,4.8-46.2,15-62.4,34.9c-16,19.6-16.9,45.6-2.1,66.3c9.1,12.7,21.6,21,35.9,26.7c22.5,9,45.8,10.4,69.4,5.8
		c21.4-4.2,40.7-13.1,56.1-29.1c25.3-26.3,22.9-62.6-5.4-85C202.5,320.9,179.5,315,154.7,314.9z M87,120.6c-0.5,6.4,0.4,13.8,2,21.1
		c5.4,24.6,16.6,45.7,37.1,60.9c11.9,8.9,25.4,12.9,40.2,9.6c18.9-4.3,29.3-17.8,35.5-35c7.1-19.6,6.6-39.7,1-59.5
		c-6.6-23.5-18.4-43.6-39.7-56.9c-23.8-14.8-49.4-9.2-64.7,14.3C89.7,88.5,86.5,103.6,87,120.6z"/>
	<path class="st0" d="M513,141c-28.3,0-56.7,0.1-85-0.1c-4.3,0-5.2,1.2-5.1,5.3c0.2,26,0,52,0.2,78c0,4-1.2,5.3-5,4.9
		c-4.4-0.5-10.2,1.8-13-0.9c-2.9-2.7-0.9-8.5-0.9-13c-0.1-22.7-0.2-45.3,0.1-68c0.1-4.8-0.8-6.4-6.1-6.4
		c-25.8,0.3-51.7,0.1-77.5,0.2c-4,0-5.8-0.9-5.4-5.2c0.4-4.5,0.3-9,0-13.5c-0.2-3.6,1.1-4.5,4.5-4.5c26.3,0.1,52.7,0,79,0.2
		c4.3,0,5.6-0.9,5.5-5.4c-0.3-25-0.1-50-0.2-75c0-3.7,0.8-5.2,4.7-4.8c3.1,0.3,6.3,0.3,9.5,0c3.9-0.4,5.1,0.9,5,4.9
		c-0.2,25,0,50-0.2,75c0,4.1,0.9,5.3,5.1,5.3c28.3-0.2,56.7-0.1,85-0.1C513,125.7,513,133.3,513,141z"/>
</g>
</svg>
