<?xml version="1.0" encoding="utf-8"?>
<!-- Generator: Adobe Illustrator 21.1.0, SVG Export Plug-In . SVG Version: 6.00 Build 0)  -->
<svg version="1.1" id="Layer_1_xA0_Afbeelding_1_" xmlns="http://www.w3.org/2000/svg" xmlns:xlink="http://www.w3.org/1999/xlink"
	 x="0px" y="0px" viewBox="0 0 47 32" style="enable-background:new 0 0 47 32;" xml:space="preserve">
<style type="text/css">
	.st0{fill:#7F7F7F;}
</style>
<g>
	<path class="st0" d="M34.5,13.5c0,3.4,0,6.8,0,10.2c0,0.9,0,1.4-1.2,1.3C26.8,25,20.2,25,13.7,25c-1.2,0-1.2-0.4-1.2-1.3
		c0.1-3.4,0-6.8,0-10.2c0.9-0.8,1.5,0.2,2.2,0.5c2.2,1.3,4.4,2.6,6.6,3.9c1.5,0.9,2.9,0.9,4.4,0c2.2-1.4,4.4-2.7,6.6-4
		C33,13.7,33.6,12.7,34.5,13.5z"/>
	<path class="st0" d="M12.5,10.5C12.5,7,12.5,7,16,7c5.4,0,10.8,0.1,16.2-0.1c1.9-0.1,2.6,0.4,2.3,2.3c-0.1,0.4,0,0.8,0,1.2
		c-3.2,2-6.5,4-9.7,6c-0.9,0.6-1.6,0.6-2.5,0C19,14.5,15.7,12.5,12.5,10.5z"/>
</g>
</svg>
