<?xml version="1.0" encoding="utf-8"?>
<!-- Generator: Adobe Illustrator 21.1.0, SVG Export Plug-In . SVG Version: 6.00 Build 0)  -->
<svg version="1.1" id="Layer_1_xA0_Afbeelding_1_" xmlns="http://www.w3.org/2000/svg" xmlns:xlink="http://www.w3.org/1999/xlink"
	 x="0px" y="0px" viewBox="0 0 78.2 65.8" style="enable-background:new 0 0 78.2 65.8;" xml:space="preserve">
<style type="text/css">
	.st0{fill:#7F7F7F;}
	.st1{fill:#ADADAD;}
	.st2{fill:#FAFAFA;}
</style>
<g>
	<path class="st0" d="M67.5,3.4c0.9,0,1.8,0,2.6,0C70.6,4,71.5,4,72.2,4.2c1.2,0.3,2.1,0.9,2.4,2.2c0.1,0.4,0.4,0.8,0.8,1
		c0,0.7,0,1.4,0,2.1c-1,1.2-1,2.7-0.8,4.1c0.1,0.8-0.1,1.4-0.8,1.8c-3.8,2.3-7.6,4.7-11.4,7.1c-6.3,3.9-12.5,7.8-18.8,11.7
		c-2,1.2-4.1,2-6.4,1c-0.8-0.3-1.5-0.7-2.2-1.1c-5.1-3-10.1-6-15.2-9.1c-5.5-3.3-11-6.6-16.4-10.2c0-1.6,0-3.2,0-4.8
		c0.9-0.7,0.6-1.8,0.9-2.8c0.4-1.6,1.4-2.7,3-2.8c1.4-0.1,2.7-0.2,4.1-0.2c18-0.1,36,0.3,53.9-0.3C66.1,4,66.9,4.1,67.5,3.4z"/>
	<path class="st1" d="M3.4,10.1C3.2,7.8,3.5,5.8,5.7,4.5C6.4,4,7.3,4,8.1,3.8c0.5-0.1,1-0.1,1.3-0.5c19.4,0,38.7,0,58.1,0
		C66.9,4.1,66.1,4,65.3,4c-18,0.5-35.9,0.1-53.9,0.3c-1.4,0-2.7,0.1-4.1,0.2c-1.6,0.1-2.6,1.3-3,2.8C4.1,8.3,4.3,9.4,3.4,10.1z"/>
	<path class="st1" d="M75.6,6c-0.5,0.4-0.1,1-0.3,1.5c-0.4-0.2-0.7-0.6-0.8-1c-0.3-1.3-1.3-1.9-2.4-2.2C71.5,4,70.6,4,70.1,3.4
		c1,0,1.9,0,2.9,0c0.2,1,1.4,1.1,1.8,1.9c0.1,0.3,0.4,0.5,0.8,0.2C75.6,5.7,75.6,5.8,75.6,6z"/>
	<path class="st2" d="M75.6,5.5c-0.4,0.2-0.7,0-0.8-0.2c-0.4-0.8-1.6-0.9-1.8-1.9c0.2,0,0.3,0,0.5,0c0.7,0,1.7-0.3,2.1,0.1
		C75.9,3.8,75.6,4.8,75.6,5.5z"/>
	<path class="st1" d="M75.4,9.6c0,1.6,0,3.2,0,4.8c0,0.8-0.5,1.1-1.1,1.5C65,21.7,55.5,27.5,46.1,33.3c-1.2,0.7-2.3,1.5-3.5,2.2
		c-2.8,1.6-5.3,0.8-7.9-0.8c-6.5-4-13-7.8-19.5-11.7c-3.8-2.3-7.5-4.7-11.3-7c-0.5-0.3-0.7-0.6-0.6-1.2c5.3,3.6,10.9,6.8,16.4,10.2
		c5.1,3,10.1,6.1,15.2,9.1c0.7,0.4,1.5,0.8,2.2,1.1c2.3,1,4.4,0.3,6.4-1c6.3-3.9,12.5-7.8,18.8-11.7c3.8-2.4,7.6-4.7,11.4-7.1
		c0.7-0.4,0.9-1,0.8-1.8C74.4,12.3,74.4,10.8,75.4,9.6z"/>
	<path class="st0" d="M72.7,62.9c-21.9,0-43.8,0-65.7,0c-1.2,0-2.2-0.2-3-1.2c-0.4-0.5-0.7-1-0.7-1.7c0-1.4,0-2.9,0-4.3
		c0.5-0.5,0.6-1.2,0.6-1.9c0-5.3,0-10.5,0-15.8c0-0.7,0-1.4-0.6-1.9c0-3.6,0-7.2,0-10.8c1.7-1.1,3.2-1.2,4.9,0.1
		c1.9,1.4,4.1,2.5,6.1,3.8c5.2,3.1,10.4,6.2,15.6,9.3c2.3,1.4,4.6,2.8,7.2,3.3c3.1,0.5,6.1-0.2,8.7-1.8c4.3-2.7,8.6-5.4,13-8
		c4-2.3,7.9-4.7,11.9-7c2.3-1.3,3.9-0.4,3.9,2.2c0,10.2,0,20.4,0,30.6C74.7,59.8,74.9,61.8,72.7,62.9z"/>
	<path class="st1" d="M72.7,62.9c2.1-1.1,2-3,2-5c0-10.2,0-20.4,0-30.6c0-2.6-1.6-3.6-3.9-2.2c-4,2.3-7.9,4.7-11.9,7
		c-4.4,2.6-8.6,5.3-13,8c-2.7,1.6-5.6,2.4-8.7,1.8c-2.7-0.5-4.9-1.9-7.2-3.3c-5.2-3.1-10.5-6.1-15.6-9.3c-2-1.2-4.2-2.4-6.1-3.8
		c-1.6-1.2-3.1-1.2-4.9-0.1c-0.1-1.3,0.9-1.4,1.7-1.6c1.1-0.3,2.1,0.2,3,0.8c4.8,3.2,10,6,15,9c3.2,2,6.5,3.9,9.8,5.8
		c4.8,2.8,9.4,2.2,13.9-0.6c6.8-4.3,13.7-8.4,20.6-12.6c1.4-0.8,2.8-1.5,4.2-2.2c1.2-0.6,2.3-0.1,3.4,0.6c0.6,0.4,0.4,1,0.4,1.6
		c0,9.5,0,19,0,28.5c0,1.9,0,3.8,0,5.8C75.3,62,74.3,62.9,72.7,62.9z"/>
	<path class="st1" d="M3.4,36.2c0.6,0.5,0.6,1.2,0.6,1.9c0,5.3,0,10.5,0,15.8c0,0.7-0.1,1.4-0.6,1.9C3.4,49.2,3.4,42.7,3.4,36.2z"/>
</g>
</svg>
