<?xml version="1.0" encoding="utf-8"?>
<!-- Generator: Adobe Illustrator 21.1.0, SVG Export Plug-In . SVG Version: 6.00 Build 0)  -->
<svg version="1.1" id="Layer_1_xA0_Afbeelding_1_" xmlns="http://www.w3.org/2000/svg" xmlns:xlink="http://www.w3.org/1999/xlink"
	 x="0px" y="0px" viewBox="0 0 107 97" style="enable-background:new 0 0 107 97;" xml:space="preserve">
<style type="text/css">
	.st0{fill:#808080;}
</style>
<g>
	<g>
		<path class="st0" d="M88.5,42c0,2.5,0,5,0,7.5c-0.5,0.2-0.4,0.6-0.5,1c-1.3,4.6-3.7,8.5-7.5,11.5c-5.9,4.7-12.6,6.5-20.1,5
			c-1.6-0.3-2,0.2-2,1.8c0.1,1.4,0,2.8-0.2,4.2c-1,5.7-4.4,9.4-9.7,11.5c-2,0-4,0-6,0c-0.3-0.5-0.8-0.4-1.3-0.6
			c-3.8-1.2-4.9-2.9-4.5-6.9c0.1-0.5,0.2-1,0.2-1.5c0.3-3.2,0.3-3.2,3.3-2.1c3.2,1.3,4.9,0.3,5.3-3.2c0.4-3,0.6-6,0.5-9
			c-0.3-6.9-0.5-13.8-0.5-20.7c0-1.7,0.7-2.5,2.2-2.5c2.8-0.1,5.6-0.3,8.5,0.3c1.4,0.3,1.7,0.9,1.7,2.1c0,3.7,0,7.3,0,11
			c0,6.6,0.1,6.7,6.6,6.6c4.9-0.1,9-1.8,11.1-6.5c2.2-4.8,1.2-9.5-2.2-13.4c-6.5-7.6-19.5-9.6-28.5-4.7c-6.7,3.7-12.4,12.7-6.3,20.3
			c0.5,0.6,0.4,1-0.2,1.4c-2.2,1.7-3.9,3.8-6.3,5.3c-1.7,1.1-2.8,0.9-4-0.9c-1.8-2.7-2.5-5.7-3.6-8.6c0-3,0-6,0-9
			c0.1-0.1,0.4-0.2,0.4-0.3c1.8-10.1,8.2-16.1,17.6-19.2c2.6-0.8,5.3-1.4,8-2c3.7,0,7.3,0,11,0c0.3,0.5,0.8,0.4,1.3,0.5
			c6,0.8,11.5,2.9,16.4,6.5C84.1,31.2,87,36.2,88.5,42z"/>
	</g>
</g>
</svg>
