<?xml version="1.0" encoding="utf-8"?>
<!-- Generator: Adobe Illustrator 21.1.0, SVG Export Plug-In . SVG Version: 6.00 Build 0)  -->
<svg version="1.1" id="Layer_1_xA0_Afbeelding_1_" xmlns="http://www.w3.org/2000/svg" xmlns:xlink="http://www.w3.org/1999/xlink"
	 x="0px" y="0px" viewBox="0 0 65.5 65.8" style="enable-background:new 0 0 65.5 65.8;" xml:space="preserve">
<style type="text/css">
	.st0{fill:#808080;}
	.st1{fill:#9D9D9D;}
</style>
<g>
	<path class="st0" d="M38.1,1.9c2.6,0.5,5.3,0.9,7.8,1.8c9,3.1,15.3,8.7,18.1,18c0.8,2.7,0.3,5.4,0.5,8.2c-1.8,4.5-3.5,9-7.5,12.2
		c-3.9,3.1-8.2,5.2-13.2,5.7c-2.3,0.2-4.6,0-6.9-0.4c-1.5-0.2-2.1,0.2-2,1.7c0.4,7.2-3,12.5-8.8,15.1c-1.6,0.7-3.2,0.4-4.8,0.5
		c-2.3,0.1-4.3-1-6.1-2.2c-1.5-1-1.7-2.7-1.6-4.3c0-1.3,0.2-2.5,0.4-3.8c0.2-1.4,0.6-1.7,2-1.2c0.8,0.3,1.7,0.6,2.5,0.8
		c1.8,0.4,2.9-0.2,3.5-2c0.5-1.5,0.5-3.1,0.7-4.7c0.4-4.5-0.1-9-0.2-13.5c-0.1-3.8-0.2-7.7-0.2-11.5c0-2.7,0.6-3.3,3.1-3.3
		c2.4,0,4.9-0.2,7.3,0.3c1.5,0.3,1.8,0.7,1.8,2.2c0,3.8,0,7.5,0,11.3c0,0.9,0,1.8,0.1,2.6c0.2,2.4,0.7,3,3.1,3.2
		c1.9,0.1,3.8,0,5.6-0.2c8.5-1.1,12-10.9,7.6-17.4c-3.2-4.8-7.8-7.4-13.4-8.5c-6.2-1.2-12.2-0.5-17.5,3.2c-3.6,2.5-6.2,5.9-6.9,10.4
		c-0.5,2.9,0.4,5.5,2,7.8c0.9,1.3,0.9,1.3-0.3,2.3c-1,0.9-2,1.8-2.9,2.7C11,39.6,10,40.4,8.9,41c-1.5,0.9-2.6,0.7-3.6-0.7
		c-1.2-1.6-1.9-3.4-2.5-5.3c-0.3-0.8-0.5-1.6-0.8-2.4c-0.1-0.3-0.1-0.8-0.6-0.8c0-3.1,0-6.2,0-9.4c0.8,0.2,0.7-0.5,0.8-0.9
		C3.3,16.1,6,11.4,10.7,7.9c4.6-3.5,10-5,15.6-6C30.2,1.9,34.1,1.9,38.1,1.9z"/>
	<path class="st1" d="M26.3,1.9c0-0.2,0-0.3,0-0.5c3.8,0,7.7,0,11.5,0c0.1,0.2,0.1,0.3,0.2,0.5C34.1,1.9,30.2,1.9,26.3,1.9z"/>
</g>
</svg>
