<?xml version="1.0" encoding="utf-8"?>
<!-- Generator: Adobe Illustrator 21.1.0, SVG Export Plug-In . SVG Version: 6.00 Build 0)  -->
<svg version="1.1" id="Layer_1_xA0_Afbeelding_1_" xmlns="http://www.w3.org/2000/svg" xmlns:xlink="http://www.w3.org/1999/xlink"
	 x="0px" y="0px" viewBox="0 0 108 105" style="enable-background:new 0 0 108 105;" xml:space="preserve">
<style type="text/css">
	.st0{fill:#7F7F7F;}
</style>
<g>
	<g>
		<path class="st0" d="M56,78.5c-3.3,0-6.7,0-10,0c-0.3-0.5-0.8-0.4-1.3-0.5c-6.7-1.4-12.6-4.3-17.1-9.7c0.1-0.1,0.3-0.3,0.4-0.4
			c2.7,1.2,5.3,2.2,8.3,2.3c3.7,0.2,9.7-1.3,11.9-4.7c-1.3-0.4-2.5-0.8-3.4-2c-1-1.5,0.6-2.3,0.9-3.4c-1.5-0.5-3-0.8-4.3-1.7
			c-0.9-0.7-1.9-1.4-1.9-2.5c0.1-1.1,1.4-1.3,2.2-1.7c0.1,0,0.1-0.3,0.1-0.5c-0.9-0.5-1.9-1-2.8-1.6c-1.5-1-2.5-2.4-2.5-4.1
			c0-1.3,2-0.2,2.7-1.4c-1.9-1.3-3.4-3-4.2-5.3c-0.2-0.6-0.4-1.4,0.1-1.9c0.5-0.4,1.1,0.1,1.6,0.3c6.8,2.7,13.7,5,19.4,10.1
			c0.5-1.1,0.8-2,1.2-2.8C60,41.8,62.1,36,69,34.5c0.3,0,0.7,0,1,0c0.3,0.4,0.2,1.1,1,1c0.7,0,2-0.5,2.1,0.6c0.1,1-1.1,1.2-2,1.5
			c-0.5,0.1-1,0.4-1.8,0.7c5.9,1.2,9.9,4.4,11.6,9.9c0.9,2.9,2.5,3,4.8,2.7c0.9-0.1,1.8-0.4,2.7-0.6c0.1,0.1,0.3,0.3,0.4,0.4
			c-1.2,2-3.3,2.6-5.4,3.4c1.9,0.9,3.9,0.3,5.6,1.3c-1.6,1.2-3.4,2.1-5.5,2.1c-1,0-1.6,0.4-2,1.5c-2.9,8.6-9.1,13.8-17.3,17.1
			C61.5,77.2,58.7,77.5,56,78.5z"/>
		<path class="st0" d="M27.3,67.2c0.3,0.2,0.5,0.5,0.8,0.7c-0.1,0.1-0.3,0.3-0.4,0.4c-0.2-0.3-0.4-0.5-0.7-0.8
			C27.1,67.4,27.2,67.3,27.3,67.2z"/>
		<path class="st0" d="M27,67.5c-0.1-0.1-0.2-0.3-0.3-0.4c0.2,0,0.4,0,0.6,0.1C27.2,67.3,27.1,67.4,27,67.5z"/>
		<path class="st0" d="M88.4,50.4c0.1-0.1,0.3-0.2,0.4-0.2c0,0.2,0,0.4,0.1,0.6C88.7,50.6,88.5,50.5,88.4,50.4z"/>
	</g>
</g>
</svg>
